<svg xmlns="http://www.w3.org/2000/svg" width="41" height="41.25" viewBox="0 0 41 41.25">
  <defs>
    <style>
      .cls-1 {
        fill: #fff;
        fill-rule: evenodd;
      }
    </style>
  </defs>
  <path id="Forma_1" data-name="Forma 1" class="cls-1" d="M385.322,3371.06H358.951l-9.367-9.42a0.679,0.679,0,0,0-.967-0.02,0.688,0.688,0,0,0-.017.97c0.006,0.01.012,0.01,0.017,0.02l3.292,3.31-3.834,5.14h-2.392a0.687,0.687,0,0,0-.683.69,0.679,0.679,0,0,0,.683.68h3.508l-3.393,5.12a0.7,0.7,0,0,0,.189.96,0.687,0.687,0,0,0,.948-0.19l3.9-5.89h8.519v5.5a0.684,0.684,0,1,0,1.367,0v-5.5h18.77l3.9,5.89a0.687,0.687,0,0,0,.948.19,0.7,0.7,0,0,0,.189-0.96l-3.39-5.12h4.19a0.679,0.679,0,0,0,.684-0.68A0.688,0.688,0,0,0,385.322,3371.06Zm-35.538,0,3.1-4.16,4.134,4.16h-7.235Zm33.488-4.81H361.685l-0.966-.97V3351.4a2.5,2.5,0,0,0,2.886-.1,0.9,0.9,0,0,1,1.062,0,2.519,2.519,0,0,0,3.039,0,0.9,0.9,0,0,1,1.062,0,2.524,2.524,0,0,0,3.2-.13,1.009,1.009,0,0,0,.357-0.8c-0.242-6.08-5.615-10.93-12.293-10.93-7.344,0-12.081,4.85-12.294,10.93a1.011,1.011,0,0,0,.359.8,2.558,2.558,0,0,0,1.684.64,2.532,2.532,0,0,0,1.519-.51,0.9,0.9,0,0,1,1.062,0,2.519,2.519,0,0,0,3.039,0,0.9,0.9,0,0,1,1.062,0,2.506,2.506,0,0,0,2.886.1v12.5l-4.984-5.01a0.678,0.678,0,0,0-.967,0l-2.05,2.06a0.687,0.687,0,0,0,0,.97l8.2,8.25a0.679,0.679,0,0,0,.483.2h23.237a0.685,0.685,0,0,0,.684-0.68v-2.75A0.688,0.688,0,0,0,383.272,3366.25ZM358.7,3350.19a1.147,1.147,0,0,1-1.43,0,2.268,2.268,0,0,0-2.671,0,1.155,1.155,0,0,1-1.429,0,2.268,2.268,0,0,0-2.671,0,1.136,1.136,0,0,1-1.383.03c0.3-5.55,4.757-9.41,10.919-9.41,5.838,0,10.594,4.12,10.918,9.41a1.133,1.133,0,0,1-1.381-.03,2.268,2.268,0,0,0-2.671,0,1.157,1.157,0,0,1-1.43,0,2.266,2.266,0,0,0-2.67,0,1.157,1.157,0,0,1-1.43,0A2.268,2.268,0,0,0,358.7,3350.19ZM382.589,3369H360.318l-7.517-7.56,1.084-1.1,5.667,5.71,1.366,1.37a0.679,0.679,0,0,0,.484.2h21.187V3369Zm-2.734-28.57a3.13,3.13,0,1,0,3.114,3.13A3.123,3.123,0,0,0,379.855,3340.43Zm0,4.89a1.76,1.76,0,1,1,1.747-1.76A1.755,1.755,0,0,1,379.855,3345.32Zm-4.253-2.45h-1.214a0.69,0.69,0,0,0,0,1.38H375.6A0.69,0.69,0,0,0,375.6,3342.87Zm1.73-2.82-0.86-.86a0.677,0.677,0,0,0-.966.01,0.7,0.7,0,0,0,0,.96l0.859,0.86a0.678,0.678,0,0,0,.967-0.01A0.7,0.7,0,0,0,377.332,3340.05Zm2.523-2.68a0.687,0.687,0,0,0-.683.69v1.22a0.684,0.684,0,1,0,1.367,0v-1.22A0.688,0.688,0,0,0,379.855,3337.37Zm4.349,1.82a0.677,0.677,0,0,0-.966,0l-0.86.86a0.688,0.688,0,0,0-.016.97,0.677,0.677,0,0,0,.966.02c0.006-.01.011-0.01,0.017-0.02l0.859-.86A0.687,0.687,0,0,0,384.2,3339.19Zm1.118,3.68h-1.214a0.69,0.69,0,0,0,0,1.38h1.214A0.69,0.69,0,0,0,385.322,3342.87Zm-1.118,4.09-0.859-.86a0.678,0.678,0,0,0-.967,0,0.687,0.687,0,0,0,0,.97l0.86,0.87a0.686,0.686,0,0,0,.966-0.02A0.7,0.7,0,0,0,384.2,3346.96Zm-4.349.19a0.687,0.687,0,0,0-.683.69v1.22a0.684,0.684,0,1,0,1.367,0v-1.22A0.688,0.688,0,0,0,379.855,3347.15Zm-2.54-1.05a0.676,0.676,0,0,0-.95,0l-0.859.86a0.7,0.7,0,0,0-.017.98,0.677,0.677,0,0,0,.966.01c0.006,0,.012-0.01.017-0.01l0.86-.87A0.688,0.688,0,0,0,377.315,3346.1Z" transform="translate(-345 -3337.38)"/>
</svg>
