<svg xmlns="http://www.w3.org/2000/svg" width="33" height="30" viewBox="0 0 33 30">
  <defs>
    <style>
      .cls-1 {
        fill: #093868;
        fill-rule: evenodd;
      }
    </style>
  </defs>
  <path id="Forma_1" data-name="Forma 1" class="cls-1" d="M1412.83,6362.12a0.488,0.488,0,0,0-.53-0.08l-32.01,14.61a0.479,0.479,0,0,0-.29.44,0.486,0.486,0,0,0,.28.44l9.06,4.37a0.5,0.5,0,0,0,.51-0.05l8.81-6.47-6.92,6.99a0.481,0.481,0,0,0-.14.37l0.69,8.81a0.508,0.508,0,0,0,.34.43,0.772,0.772,0,0,0,.15.02,0.5,0.5,0,0,0,.38-0.17l4.81-5.47,5.94,2.79a0.53,0.53,0,0,0,.41.01,0.5,0.5,0,0,0,.27-0.3l8.39-26.23A0.477,0.477,0,0,0,1412.83,6362.12Z" transform="translate(-1380 -6362)"/>
</svg>
