<svg xmlns="http://www.w3.org/2000/svg" width="13" height="12" viewBox="0 0 13 12">
  <defs>
    <style>
      .cls-1 {
        fill: #fff;
        fill-rule: evenodd;
      }
    </style>
  </defs>
  <path id="Linkedin" class="cls-1" d="M1201,74.357V79h-2.79V74.667c0-1.088-.4-1.831-1.41-1.831a1.519,1.519,0,0,0-1.43.985,1.866,1.866,0,0,0-.09.656V79h-2.79s0.04-7.336,0-8.1h2.79V72.05c-0.01.009-.01,0.018-0.02,0.026h0.02V72.05a2.781,2.781,0,0,1,2.51-1.338C1199.63,70.712,1201,71.87,1201,74.357ZM1189.58,67a1.407,1.407,0,1,0-.04,2.8h0.02A1.408,1.408,0,1,0,1189.58,67Zm-1.41,12h2.78V70.9h-2.78V79Z" transform="translate(-1188 -67)"/>
</svg>
