<svg xmlns="http://www.w3.org/2000/svg" width="18" height="26" viewBox="0 0 18 26">
  <defs>
    <style>
      .cls-1 {
        fill: #fff;
        fill-rule: evenodd;
      }
    </style>
  </defs>
  <path id="Forma_1" data-name="Forma 1" class="cls-1" d="M1745,1047a9.165,9.165,0,0,0-9,9.3v7.4a9,9,0,1,0,18,.03v-7.43A9.165,9.165,0,0,0,1745,1047Zm7.31,16.73a7.314,7.314,0,1,1-14.62-.03v-7.4a7.315,7.315,0,1,1,14.62,0v7.43Zm-7.31-9.61a0.851,0.851,0,0,0-.85.86v3.01a0.85,0.85,0,1,0,1.7,0v-3.01A0.851,0.851,0,0,0,1745,1054.12Z" transform="translate(-1736 -1047)"/>
</svg>
