<svg xmlns="http://www.w3.org/2000/svg" width="41" height="41.25" viewBox="0 0 41 41.25">
  <defs>
    <style>
      .cls-1 {
        fill: #fff;
        fill-rule: evenodd;
      }
    </style>
  </defs>
  <path id="Forma_1" data-name="Forma 1" class="cls-1" d="M1123.45,3347h-15.04a3.436,3.436,0,0,0-3.42,3.44v22a3.433,3.433,0,0,0,3.42,3.43h8.89v-1.37h-8.89a2.061,2.061,0,0,1-2.05-2.06v-22a2.064,2.064,0,0,1,2.05-2.07h15.04a2.064,2.064,0,0,1,2.05,2.07v0.68h1.36v-0.68A3.427,3.427,0,0,0,1123.45,3347Zm-3.42-8.94h-8.2a2.065,2.065,0,0,0,0,4.13h8.2A2.065,2.065,0,0,0,1120.03,3338.06Zm0,2.75h-8.2a0.691,0.691,0,0,1-.69-0.69,0.683,0.683,0,0,1,.69-0.68h8.2a0.674,0.674,0,0,1,.68.68A0.683,0.683,0,0,1,1120.03,3340.81Zm-7.52.69h1.37v6.19h-1.37v-6.19Zm5.47,0h1.37v6.19h-1.37v-6.19Zm-8.89,17.19h1.37v12.37h-1.37v-12.37Zm8.21-7.57h1.36v5.5h-1.36v-5.5Zm-9.23,23.38a2.405,2.405,0,1,0,2.39,2.4A2.4,2.4,0,0,0,1108.07,3374.5Zm0,3.44a1.035,1.035,0,1,1,1.02-1.04A1.037,1.037,0,0,1,1108.07,3377.94Zm5.12-26.82h1.37v19.94h-1.37v-19.94Zm-0.73,5.93-1.36-3.43a0.707,0.707,0,0,0-.38-0.38,0.7,0.7,0,0,0-.53,0l-4.78,2.06a0.7,0.7,0,0,0-.42.64v4.12a0.712,0.712,0,0,0,.31.58,0.758,0.758,0,0,0,.38.11,0.706,0.706,0,0,0,.28-0.06l6.15-2.75A0.693,0.693,0,0,0,1112.46,3357.05Zm-6.1,1.95v-2.61l3.73-1.61,0.86,2.17Zm2.73-7.88h1.37v3.44h-1.37v-3.44Zm12.31,0h1.36v5.5h-1.36v-5.5Zm2.39,23.38a2.405,2.405,0,1,0,2.39,2.4A2.4,2.4,0,0,0,1123.79,3374.5Zm0,3.44a1.035,1.035,0,1,1,1.02-1.04A1.037,1.037,0,0,1,1123.79,3377.94Zm18.79-22.69h-23.92a3.427,3.427,0,0,0-3.41,3.44v13.75a3.425,3.425,0,0,0,3.41,3.43h23.92a3.427,3.427,0,0,0,3.42-3.43v-13.75A3.429,3.429,0,0,0,1142.58,3355.25Zm2.05,17.19a2.061,2.061,0,0,1-2.05,2.06h-23.92a2.061,2.061,0,0,1-2.05-2.06v-13.75a2.064,2.064,0,0,1,2.05-2.07h23.92a2.064,2.064,0,0,1,2.05,2.07v13.75h0Zm-10.93-19.94h-6.15a0.691,0.691,0,0,0-.69.69v2.75h1.37v-2.07h4.78v2.07h1.37v-2.75A0.683,0.683,0,0,0,1133.7,3352.5Zm0-2.75h-6.15a3.429,3.429,0,0,0-3.42,3.44v2.75h1.37v-2.75a2.064,2.064,0,0,1,2.05-2.07h6.15a2.064,2.064,0,0,1,2.05,2.07v2.75h1.37v-2.75A3.436,3.436,0,0,0,1133.7,3349.75Zm-0.13,13.35-3.42-4.81a0.694,0.694,0,0,0-1.11,0l-3.42,4.81a0.674,0.674,0,0,0-.05.71,0.69,0.69,0,0,0,.61.38h6.83A0.693,0.693,0,0,0,1133.57,3363.1Zm-6.06-.29,2.09-2.94,2.09,2.94h-4.18Zm12.72,2.29c-2.15-.71-4.37.19-4.95,1.99a3.186,3.186,0,0,0,.43,2.75,4.559,4.559,0,0,0,2.4,1.79,4.639,4.639,0,0,0,1.49.24,3.489,3.489,0,0,0,3.47-2.23C1143.65,3367.84,1142.38,3365.8,1140.23,3365.1Zm1.54,4.12c-0.35,1.08-1.8,1.57-3.23,1.1a3.132,3.132,0,0,1-1.69-1.24,1.817,1.817,0,0,1-.27-1.57h0a2.127,2.127,0,0,1,2.14-1.28,3.553,3.553,0,0,1,1.09.18C1141.24,3366.88,1142.12,3368.14,1141.77,3369.22Zm-23.45,5.28a2.405,2.405,0,1,0,2.39,2.4A2.4,2.4,0,0,0,1118.32,3374.5Zm0,3.44a1.035,1.035,0,1,1,1.03-1.04A1.035,1.035,0,0,1,1118.32,3377.94Zm24.6-3.44a2.405,2.405,0,1,0,2.4,2.4A2.4,2.4,0,0,0,1142.92,3374.5Zm0,3.44a1.035,1.035,0,1,1,1.03-1.04A1.035,1.035,0,0,1,1142.92,3377.94Zm-21.52-8.25h1.36v5.5h-1.36v-5.5Zm0.68-14.44h-2.73a0.691,0.691,0,0,0-.69.69v8.25h1.37v-7.57h1.37v8.94h1.36v-9.62A0.683,0.683,0,0,0,1122.08,3355.25Zm-3.42,12.37h1.37v7.57h-1.37v-7.57Zm22.56,2.75h1.36v4.82h-1.36v-4.82Zm0.68-15.12h-2.73a0.691,0.691,0,0,0-.69.69v9.62h1.37v-8.94h1.37v10.32h1.36v-11A0.683,0.683,0,0,0,1141.9,3355.25Zm-3.42,15.81h1.37v4.13h-1.37v-4.13Zm-14.01-4.72-8.2-4.81-0.69,1.19,7.65,4.49-0.75,1.5-6.2-3.74-0.7,1.18,6.83,4.13a0.73,0.73,0,0,0,.35.09,1.108,1.108,0,0,0,.19-0.02,0.687,0.687,0,0,0,.42-0.36l1.37-2.75A0.685,0.685,0,0,0,1124.47,3366.34Z" transform="translate(-1105 -3338.06)"/>
</svg>
