<svg xmlns="http://www.w3.org/2000/svg" width="13" height="11" viewBox="0 0 13 11">
  <defs>
    <style>
      .cls-1 {
        fill: #fff;
        fill-rule: evenodd;
      }
    </style>
  </defs>
  <path id="Twitter" class="cls-1" d="M1156,69.3a5.371,5.371,0,0,1-1.54.439,2.732,2.732,0,0,0,1.18-1.535,5.314,5.314,0,0,1-1.69.672A2.633,2.633,0,0,0,1152,68a2.716,2.716,0,0,0-2.66,2.777,2.625,2.625,0,0,0,.06.633,7.423,7.423,0,0,1-5.49-2.9,2.889,2.889,0,0,0-.37,1.4,2.83,2.83,0,0,0,1.18,2.307,2.574,2.574,0,0,1-1.2-.342V71.9a2.759,2.759,0,0,0,2.14,2.728,2.637,2.637,0,0,1-.7.091,2.31,2.31,0,0,1-.51-0.047,2.718,2.718,0,0,0,2.49,1.934,5.211,5.211,0,0,1-3.3,1.184,4.838,4.838,0,0,1-.64-0.038A7.285,7.285,0,0,0,1147.09,79a7.7,7.7,0,0,0,7.58-7.9c0-.122,0-0.241-0.01-0.359A5.4,5.4,0,0,0,1156,69.3Z" transform="translate(-1143 -68)"/>
</svg>
